<svg width="16" height="16" viewBox="0 0 16 16" fill="none" xmlns="http://www.w3.org/2000/svg">
<path d="M13.9842 7.6256L8.63353 12.9763C7.97804 13.6317 7.08899 14 6.16198 14C5.23497 14 4.34593 13.6317 3.69044 12.9763C3.03494 12.3208 2.66669 11.4317 2.66669 10.5047C2.66669 9.57769 3.03494 8.68865 3.69044 8.03315L9.04109 2.6825C9.47809 2.2455 10.0708 2 10.6888 2C11.3068 2 11.8995 2.2455 12.3365 2.6825C12.7735 3.1195 13.019 3.71219 13.019 4.3302C13.019 4.94821 12.7735 5.5409 12.3365 5.9779L6.98001 11.3286C6.87182 11.4367 6.74338 11.5226 6.60203 11.5811C6.46067 11.6397 6.30916 11.6698 6.15616 11.6698C6.00316 11.6698 5.85165 11.6397 5.7103 11.5811C5.56894 11.5226 5.4405 11.4367 5.33231 11.3286C5.22412 11.2204 5.1383 11.0919 5.07975 10.9506C5.0212 10.8092 4.99106 10.6577 4.99106 10.5047C4.99106 10.3517 5.0212 10.2002 5.07975 10.0588C5.1383 9.91748 5.22412 9.78904 5.33231 9.68085L10.2754 4.74358" stroke="#757575" stroke-width="1.5" stroke-linecap="round" stroke-linejoin="round"/>
</svg>
