<svg width="48" height="48" viewBox="0 0 48 48" fill="none" xmlns="http://www.w3.org/2000/svg">
<path d="M8.00012 26.4614H16.6155C17.2683 26.4614 17.8944 26.7208 18.3561 27.1824C18.8177 27.644 19.077 28.2701 19.077 28.923C19.077 30.2286 19.5957 31.4808 20.519 32.4041C21.4422 33.3274 22.6944 33.846 24.0001 33.846C25.3058 33.846 26.558 33.3274 27.4813 32.4041C28.4045 31.4808 28.9232 30.2286 28.9232 28.923C28.9232 28.2701 29.1825 27.644 29.6442 27.1824C30.1058 26.7208 30.7319 26.4614 31.3847 26.4614H40.0001M8.00012 26.4614V37.5384C8.00012 38.8978 9.10219 39.9999 10.4617 39.9999H37.5386C38.8981 39.9999 40.0001 38.8978 40.0001 37.5384V26.4614M8.00012 26.4614L12.0001 10.4614C12.0001 9.10198 13.1022 7.99991 14.4617 7.99991H33.5386C34.8981 7.99991 36.0001 9.10198 36.0001 10.4614L40.0001 26.4614" stroke="#424242" stroke-width="3" stroke-linecap="round" stroke-linejoin="round"/>
</svg>
